<mxfile host="app.diagrams.net" modified="2024-06-07T16:59:31.207Z" agent="Mozilla/5.0 (Windows NT 10.0; Win64; x64) AppleWebKit/537.36 (KHTML, like Gecko) Chrome/125.0.0.0 Safari/537.36" etag="DrmAhwLBLsG9dSJEOXnI" version="24.5.1" type="device">
  <diagram name="Page-1" id="Bg5fFFTNIpe96J259sQk">
    <mxGraphModel dx="1434" dy="738" grid="1" gridSize="10" guides="1" tooltips="1" connect="1" arrows="1" fold="1" page="1" pageScale="1" pageWidth="1169" pageHeight="827" math="0" shadow="0">
      <root>
        <mxCell id="0" />
        <mxCell id="1" parent="0" />
        <mxCell id="jWBgDd1FHg-7k9Ct29qL-1" value="Relayer" style="shape=umlActor;verticalLabelPosition=bottom;verticalAlign=top;html=1;outlineConnect=0;" vertex="1" parent="1">
          <mxGeometry x="590" y="90" width="30" height="60" as="geometry" />
        </mxCell>
        <mxCell id="jWBgDd1FHg-7k9Ct29qL-3" value="Bridge" style="shape=umlActor;verticalLabelPosition=bottom;verticalAlign=top;html=1;outlineConnect=0;" vertex="1" parent="1">
          <mxGeometry x="770" y="90" width="30" height="60" as="geometry" />
        </mxCell>
        <mxCell id="jWBgDd1FHg-7k9Ct29qL-4" value="Vault" style="shape=umlActor;verticalLabelPosition=bottom;verticalAlign=top;html=1;outlineConnect=0;" vertex="1" parent="1">
          <mxGeometry x="950" y="90" width="30" height="60" as="geometry" />
        </mxCell>
        <mxCell id="jWBgDd1FHg-7k9Ct29qL-7" value="" style="endArrow=none;html=1;rounded=0;" edge="1" parent="1">
          <mxGeometry width="50" height="50" relative="1" as="geometry">
            <mxPoint x="600" y="1560" as="sourcePoint" />
            <mxPoint x="605" y="190" as="targetPoint" />
          </mxGeometry>
        </mxCell>
        <mxCell id="jWBgDd1FHg-7k9Ct29qL-8" value="" style="endArrow=none;html=1;rounded=0;" edge="1" parent="1">
          <mxGeometry width="50" height="50" relative="1" as="geometry">
            <mxPoint x="800" y="1560" as="sourcePoint" />
            <mxPoint x="785" y="190" as="targetPoint" />
          </mxGeometry>
        </mxCell>
        <mxCell id="jWBgDd1FHg-7k9Ct29qL-9" value="" style="endArrow=none;html=1;rounded=0;" edge="1" parent="1">
          <mxGeometry width="50" height="50" relative="1" as="geometry">
            <mxPoint x="990" y="1580" as="sourcePoint" />
            <mxPoint x="970" y="190" as="targetPoint" />
          </mxGeometry>
        </mxCell>
        <mxCell id="jWBgDd1FHg-7k9Ct29qL-10" value="Oracle" style="shape=umlActor;verticalLabelPosition=bottom;verticalAlign=top;html=1;outlineConnect=0;" vertex="1" parent="1">
          <mxGeometry x="410" y="90" width="30" height="60" as="geometry" />
        </mxCell>
        <mxCell id="jWBgDd1FHg-7k9Ct29qL-11" value="" style="endArrow=none;html=1;rounded=0;" edge="1" parent="1">
          <mxGeometry width="50" height="50" relative="1" as="geometry">
            <mxPoint x="420" y="1570" as="sourcePoint" />
            <mxPoint x="425" y="190" as="targetPoint" />
          </mxGeometry>
        </mxCell>
        <mxCell id="jWBgDd1FHg-7k9Ct29qL-13" value="Call" style="endArrow=classic;html=1;rounded=0;" edge="1" parent="1">
          <mxGeometry width="50" height="50" relative="1" as="geometry">
            <mxPoint x="280" y="50" as="sourcePoint" />
            <mxPoint x="370" y="50" as="targetPoint" />
          </mxGeometry>
        </mxCell>
        <mxCell id="jWBgDd1FHg-7k9Ct29qL-14" value="&lt;div style=&quot;color: rgb(204, 204, 204); background-color: rgb(31, 31, 31); font-family: Consolas, &amp;quot;Courier New&amp;quot;, monospace; font-size: 14px; line-height: 19px; white-space-collapse: preserve;&quot;&gt;&lt;span style=&quot;color: #dcdcaa;&quot;&gt;bridge()&lt;/span&gt;&lt;/div&gt;" style="endArrow=classic;html=1;rounded=0;" edge="1" parent="1">
          <mxGeometry x="-0.6571" width="50" height="50" relative="1" as="geometry">
            <mxPoint x="250" y="224.5" as="sourcePoint" />
            <mxPoint x="780" y="224.5" as="targetPoint" />
            <mxPoint as="offset" />
          </mxGeometry>
        </mxCell>
        <mxCell id="jWBgDd1FHg-7k9Ct29qL-15" value="&lt;div style=&quot;color: rgb(204, 204, 204); background-color: rgb(31, 31, 31); font-family: Consolas, &amp;quot;Courier New&amp;quot;, monospace; font-size: 14px; line-height: 19px; white-space-collapse: preserve;&quot;&gt;&lt;span style=&quot;color: #dcdcaa;&quot;&gt;finalize()&lt;/span&gt;&lt;/div&gt;" style="endArrow=classic;html=1;rounded=0;" edge="1" parent="1">
          <mxGeometry width="50" height="50" relative="1" as="geometry">
            <mxPoint x="610" y="1170" as="sourcePoint" />
            <mxPoint x="790" y="1170" as="targetPoint" />
            <mxPoint as="offset" />
          </mxGeometry>
        </mxCell>
        <mxCell id="jWBgDd1FHg-7k9Ct29qL-16" value="&lt;div style=&quot;color: rgb(204, 204, 204); background-color: rgb(31, 31, 31); font-family: Consolas, &amp;quot;Courier New&amp;quot;, monospace; font-size: 14px; line-height: 19px; white-space-collapse: preserve;&quot;&gt;&lt;span style=&quot;color: #dcdcaa;&quot;&gt;c&lt;/span&gt;&lt;span style=&quot;color: rgb(220, 220, 170);&quot;&gt;reateOperation()&lt;/span&gt;&lt;/div&gt;" style="endArrow=classic;html=1;rounded=0;" edge="1" parent="1">
          <mxGeometry x="-0.1111" width="50" height="50" relative="1" as="geometry">
            <mxPoint x="781" y="400" as="sourcePoint" />
            <mxPoint x="601" y="400" as="targetPoint" />
            <mxPoint as="offset" />
          </mxGeometry>
        </mxCell>
        <mxCell id="jWBgDd1FHg-7k9Ct29qL-18" value="User" style="shape=umlActor;verticalLabelPosition=bottom;verticalAlign=top;html=1;outlineConnect=0;" vertex="1" parent="1">
          <mxGeometry x="230" y="90" width="30" height="60" as="geometry" />
        </mxCell>
        <mxCell id="jWBgDd1FHg-7k9Ct29qL-19" value="" style="endArrow=none;html=1;rounded=0;" edge="1" parent="1">
          <mxGeometry width="50" height="50" relative="1" as="geometry">
            <mxPoint x="240" y="1570" as="sourcePoint" />
            <mxPoint x="245" y="190" as="targetPoint" />
          </mxGeometry>
        </mxCell>
        <mxCell id="jWBgDd1FHg-7k9Ct29qL-22" value="&lt;div style=&quot;color: rgb(204, 204, 204); background-color: rgb(31, 31, 31); font-family: Consolas, &amp;quot;Courier New&amp;quot;, monospace; font-size: 14px; line-height: 19px; white-space-collapse: preserve;&quot;&gt;&lt;span style=&quot;color: #dcdcaa;&quot;&gt;confirmOperation()&lt;/span&gt;&lt;/div&gt;" style="endArrow=classic;html=1;rounded=0;" edge="1" parent="1">
          <mxGeometry x="-0.1111" width="50" height="50" relative="1" as="geometry">
            <mxPoint x="421" y="460" as="sourcePoint" />
            <mxPoint x="601" y="460" as="targetPoint" />
            <mxPoint as="offset" />
          </mxGeometry>
        </mxCell>
        <mxCell id="jWBgDd1FHg-7k9Ct29qL-23" value="&lt;div style=&quot;color: rgb(204, 204, 204); background-color: rgb(31, 31, 31); font-family: Consolas, &amp;quot;Courier New&amp;quot;, monospace; font-size: 14px; line-height: 19px; white-space-collapse: preserve;&quot;&gt;&lt;div style=&quot;line-height: 19px;&quot;&gt;&lt;span style=&quot;color: #dcdcaa;&quot;&gt;triggerOperation()&lt;/span&gt;&lt;/div&gt;&lt;/div&gt;" style="endArrow=classic;html=1;rounded=0;" edge="1" parent="1">
          <mxGeometry x="-0.1086" width="50" height="50" relative="1" as="geometry">
            <mxPoint x="241" y="530" as="sourcePoint" />
            <mxPoint x="591" y="530" as="targetPoint" />
            <mxPoint as="offset" />
          </mxGeometry>
        </mxCell>
        <mxCell id="jWBgDd1FHg-7k9Ct29qL-24" value="&lt;div style=&quot;color: rgb(204, 204, 204); background-color: rgb(31, 31, 31); font-family: Consolas, &amp;quot;Courier New&amp;quot;, monospace; font-size: 14px; line-height: 19px; white-space-collapse: preserve;&quot;&gt;&lt;div style=&quot;line-height: 19px;&quot;&gt;&lt;div style=&quot;line-height: 19px;&quot;&gt;&lt;span style=&quot;color: #dcdcaa;&quot;&gt;simulateOperation()&lt;/span&gt;&lt;/div&gt;&lt;/div&gt;&lt;/div&gt;" style="endArrow=classic;html=1;rounded=0;" edge="1" parent="1">
          <mxGeometry x="-0.1086" width="50" height="50" relative="1" as="geometry">
            <mxPoint x="245" y="1080" as="sourcePoint" />
            <mxPoint x="605" y="1080" as="targetPoint" />
            <mxPoint as="offset" />
          </mxGeometry>
        </mxCell>
        <mxCell id="jWBgDd1FHg-7k9Ct29qL-25" value="&lt;div style=&quot;color: rgb(204, 204, 204); background-color: rgb(31, 31, 31); font-family: Consolas, &amp;quot;Courier New&amp;quot;, monospace; font-size: 14px; line-height: 19px; white-space-collapse: preserve;&quot;&gt;&lt;div style=&quot;line-height: 19px;&quot;&gt;&lt;div style=&quot;line-height: 19px;&quot;&gt;&lt;span style=&quot;color: rgb(220, 220, 170);&quot;&gt;computeFees&lt;/span&gt;&lt;span style=&quot;color: #dcdcaa;&quot;&gt;()&lt;/span&gt;&lt;/div&gt;&lt;/div&gt;&lt;/div&gt;" style="endArrow=classic;html=1;rounded=0;" edge="1" parent="1">
          <mxGeometry x="-0.1086" width="50" height="50" relative="1" as="geometry">
            <mxPoint x="245" y="1060" as="sourcePoint" />
            <mxPoint x="605" y="1060" as="targetPoint" />
            <mxPoint as="offset" />
          </mxGeometry>
        </mxCell>
        <mxCell id="jWBgDd1FHg-7k9Ct29qL-26" value="&lt;div style=&quot;color: rgb(204, 204, 204); background-color: rgb(31, 31, 31); font-family: Consolas, &amp;quot;Courier New&amp;quot;, monospace; font-size: 14px; line-height: 19px; white-space-collapse: preserve;&quot;&gt;&lt;span style=&quot;color: rgb(220, 220, 170);&quot;&gt;lockDestinationFees&lt;/span&gt;&lt;span style=&quot;color: #dcdcaa;&quot;&gt;()&lt;/span&gt;&lt;/div&gt;" style="endArrow=classic;html=1;rounded=0;" edge="1" parent="1">
          <mxGeometry width="50" height="50" relative="1" as="geometry">
            <mxPoint x="440" y="940" as="sourcePoint" />
            <mxPoint x="620" y="940" as="targetPoint" />
            <mxPoint as="offset" />
          </mxGeometry>
        </mxCell>
        <mxCell id="jWBgDd1FHg-7k9Ct29qL-27" value="&lt;div style=&quot;color: rgb(204, 204, 204); background-color: rgb(31, 31, 31); font-family: Consolas, &amp;quot;Courier New&amp;quot;, monospace; font-size: 14px; line-height: 19px; white-space-collapse: preserve;&quot;&gt;&lt;span style=&quot;color: rgb(220, 220, 170);&quot;&gt;finalizeOperation&lt;/span&gt;&lt;span style=&quot;color: #dcdcaa;&quot;&gt;()&lt;/span&gt;&lt;/div&gt;" style="endArrow=classic;html=1;rounded=0;" edge="1" parent="1">
          <mxGeometry width="50" height="50" relative="1" as="geometry">
            <mxPoint x="421" y="1150" as="sourcePoint" />
            <mxPoint x="601" y="1150" as="targetPoint" />
            <mxPoint as="offset" />
          </mxGeometry>
        </mxCell>
        <mxCell id="jWBgDd1FHg-7k9Ct29qL-28" value="&lt;div style=&quot;color: rgb(204, 204, 204); background-color: rgb(31, 31, 31); font-family: Consolas, &amp;quot;Courier New&amp;quot;, monospace; font-size: 14px; line-height: 19px; white-space-collapse: preserve;&quot;&gt;&lt;div style=&quot;line-height: 19px;&quot;&gt;&lt;span style=&quot;color: #dcdcaa;&quot;&gt;depositNative()&lt;/span&gt;&lt;/div&gt;&lt;/div&gt;" style="endArrow=classic;html=1;rounded=0;" edge="1" parent="1">
          <mxGeometry width="50" height="50" relative="1" as="geometry">
            <mxPoint x="790" y="240" as="sourcePoint" />
            <mxPoint x="970" y="240" as="targetPoint" />
            <mxPoint as="offset" />
          </mxGeometry>
        </mxCell>
        <mxCell id="jWBgDd1FHg-7k9Ct29qL-29" value="&lt;div style=&quot;color: rgb(204, 204, 204); background-color: rgb(31, 31, 31); font-family: Consolas, &amp;quot;Courier New&amp;quot;, monospace; font-size: 14px; line-height: 19px; white-space-collapse: preserve;&quot;&gt;&lt;div style=&quot;line-height: 19px;&quot;&gt;&lt;span style=&quot;color: rgb(220, 220, 170);&quot;&gt;depositToken&lt;/span&gt;&lt;span style=&quot;color: #dcdcaa;&quot;&gt;()&lt;/span&gt;&lt;/div&gt;&lt;/div&gt;" style="endArrow=classic;html=1;rounded=0;" edge="1" parent="1">
          <mxGeometry width="50" height="50" relative="1" as="geometry">
            <mxPoint x="790" y="270" as="sourcePoint" />
            <mxPoint x="970" y="270" as="targetPoint" />
            <mxPoint as="offset" />
          </mxGeometry>
        </mxCell>
        <mxCell id="jWBgDd1FHg-7k9Ct29qL-30" value="&lt;div style=&quot;background-color: rgb(31, 31, 31); font-family: Consolas, &amp;quot;Courier New&amp;quot;, monospace; font-size: 14px; line-height: 19px; white-space-collapse: preserve;&quot;&gt;&lt;div style=&quot;line-height: 19px;&quot;&gt;&lt;font color=&quot;#dcdcaa&quot;&gt;mint()&lt;/font&gt;&lt;/div&gt;&lt;/div&gt;" style="endArrow=classic;html=1;rounded=0;" edge="1" parent="1">
          <mxGeometry width="50" height="50" relative="1" as="geometry">
            <mxPoint x="800" y="1220" as="sourcePoint" />
            <mxPoint x="980" y="1220" as="targetPoint" />
            <mxPoint as="offset" />
          </mxGeometry>
        </mxCell>
        <mxCell id="jWBgDd1FHg-7k9Ct29qL-31" value="&lt;div style=&quot;background-color: rgb(31, 31, 31); font-family: Consolas, &amp;quot;Courier New&amp;quot;, monospace; font-size: 14px; line-height: 19px; white-space-collapse: preserve;&quot;&gt;&lt;div style=&quot;line-height: 19px;&quot;&gt;&lt;font color=&quot;#dcdcaa&quot;&gt;burn()&lt;/font&gt;&lt;/div&gt;&lt;/div&gt;" style="endArrow=classic;html=1;rounded=0;" edge="1" parent="1">
          <mxGeometry width="50" height="50" relative="1" as="geometry">
            <mxPoint x="790" y="300" as="sourcePoint" />
            <mxPoint x="970" y="300" as="targetPoint" />
            <mxPoint as="offset" />
          </mxGeometry>
        </mxCell>
        <mxCell id="jWBgDd1FHg-7k9Ct29qL-32" value="&lt;div style=&quot;background-color: rgb(31, 31, 31); font-family: Consolas, &amp;quot;Courier New&amp;quot;, monospace; font-size: 14px; line-height: 19px; white-space-collapse: preserve;&quot;&gt;&lt;div style=&quot;line-height: 19px;&quot;&gt;&lt;font color=&quot;#dcdcaa&quot;&gt;unlockNative()&lt;/font&gt;&lt;/div&gt;&lt;/div&gt;" style="endArrow=classic;html=1;rounded=0;" edge="1" parent="1">
          <mxGeometry width="50" height="50" relative="1" as="geometry">
            <mxPoint x="800" y="1250" as="sourcePoint" />
            <mxPoint x="980" y="1250" as="targetPoint" />
            <mxPoint as="offset" />
          </mxGeometry>
        </mxCell>
        <mxCell id="jWBgDd1FHg-7k9Ct29qL-33" value="&lt;div style=&quot;background-color: rgb(31, 31, 31); font-family: Consolas, &amp;quot;Courier New&amp;quot;, monospace; font-size: 14px; line-height: 19px; white-space-collapse: preserve;&quot;&gt;&lt;div style=&quot;line-height: 19px;&quot;&gt;&lt;span style=&quot;color: rgb(220, 220, 170);&quot;&gt;unlockToken&lt;/span&gt;&lt;font color=&quot;#dcdcaa&quot;&gt;()&lt;/font&gt;&lt;/div&gt;&lt;/div&gt;" style="endArrow=classic;html=1;rounded=0;" edge="1" parent="1">
          <mxGeometry width="50" height="50" relative="1" as="geometry">
            <mxPoint x="790" y="1190" as="sourcePoint" />
            <mxPoint x="980" y="1190" as="targetPoint" />
            <mxPoint as="offset" />
          </mxGeometry>
        </mxCell>
        <mxCell id="jWBgDd1FHg-7k9Ct29qL-34" value="&lt;div style=&quot;color: rgb(204, 204, 204); background-color: rgb(31, 31, 31); font-family: Consolas, &amp;quot;Courier New&amp;quot;, monospace; font-size: 14px; line-height: 19px; white-space-collapse: preserve;&quot;&gt;&lt;span style=&quot;color: rgb(220, 220, 170);&quot;&gt;depositFees&lt;/span&gt;&lt;span style=&quot;color: #dcdcaa;&quot;&gt;()&lt;/span&gt;&lt;/div&gt;" style="endArrow=classic;html=1;rounded=0;" edge="1" parent="1">
          <mxGeometry x="-0.6571" width="50" height="50" relative="1" as="geometry">
            <mxPoint x="250" y="970" as="sourcePoint" />
            <mxPoint x="970" y="970" as="targetPoint" />
            <mxPoint as="offset" />
          </mxGeometry>
        </mxCell>
        <mxCell id="jWBgDd1FHg-7k9Ct29qL-35" value="Admin" style="shape=umlActor;verticalLabelPosition=bottom;verticalAlign=top;html=1;outlineConnect=0;" vertex="1" parent="1">
          <mxGeometry x="140" y="90" width="30" height="60" as="geometry" />
        </mxCell>
        <mxCell id="jWBgDd1FHg-7k9Ct29qL-36" value="" style="endArrow=none;html=1;rounded=0;" edge="1" parent="1">
          <mxGeometry width="50" height="50" relative="1" as="geometry">
            <mxPoint x="160" y="1581" as="sourcePoint" />
            <mxPoint x="155" y="190" as="targetPoint" />
          </mxGeometry>
        </mxCell>
        <mxCell id="jWBgDd1FHg-7k9Ct29qL-37" value="&lt;div style=&quot;color: rgb(204, 204, 204); background-color: rgb(31, 31, 31); font-family: Consolas, &amp;quot;Courier New&amp;quot;, monospace; font-size: 14px; line-height: 19px; white-space-collapse: preserve;&quot;&gt;&lt;span style=&quot;color: rgb(220, 220, 170);&quot;&gt;adminUrgenceWithdrawal&lt;/span&gt;&lt;span style=&quot;color: #dcdcaa;&quot;&gt;()&lt;/span&gt;&lt;/div&gt;" style="endArrow=classic;html=1;rounded=0;" edge="1" parent="1">
          <mxGeometry x="-0.6571" width="50" height="50" relative="1" as="geometry">
            <mxPoint x="180" y="1490" as="sourcePoint" />
            <mxPoint x="1000" y="1490" as="targetPoint" />
            <mxPoint as="offset" />
          </mxGeometry>
        </mxCell>
        <mxCell id="jWBgDd1FHg-7k9Ct29qL-38" value="&lt;div style=&quot;color: rgb(204, 204, 204); background-color: rgb(31, 31, 31); font-family: Consolas, &amp;quot;Courier New&amp;quot;, monospace; font-size: 14px; line-height: 19px; white-space-collapse: preserve;&quot;&gt;&lt;span style=&quot;color: rgb(220, 220, 170);&quot;&gt;adminWithdrawal&lt;/span&gt;&lt;span style=&quot;color: #dcdcaa;&quot;&gt;()&lt;/span&gt;&lt;/div&gt;" style="endArrow=classic;html=1;rounded=0;" edge="1" parent="1">
          <mxGeometry x="-0.6571" width="50" height="50" relative="1" as="geometry">
            <mxPoint x="180" y="1520" as="sourcePoint" />
            <mxPoint x="1000" y="1520" as="targetPoint" />
            <mxPoint as="offset" />
          </mxGeometry>
        </mxCell>
        <mxCell id="jWBgDd1FHg-7k9Ct29qL-39" value="&lt;div style=&quot;color: rgb(204, 204, 204); background-color: rgb(31, 31, 31); font-family: Consolas, &amp;quot;Courier New&amp;quot;, monospace; font-size: 14px; line-height: 19px; white-space-collapse: preserve;&quot;&gt;&lt;div style=&quot;line-height: 19px;&quot;&gt;&lt;span style=&quot;color: rgb(220, 220, 170);&quot;&gt;operatorRedeem&lt;/span&gt;&lt;span style=&quot;color: #dcdcaa;&quot;&gt;()&lt;/span&gt;&lt;/div&gt;&lt;/div&gt;" style="endArrow=classic;html=1;rounded=0;" edge="1" parent="1">
          <mxGeometry width="50" height="50" relative="1" as="geometry">
            <mxPoint x="800" y="1330" as="sourcePoint" />
            <mxPoint x="980" y="1330" as="targetPoint" />
            <mxPoint as="offset" />
          </mxGeometry>
        </mxCell>
        <mxCell id="jWBgDd1FHg-7k9Ct29qL-40" value="&lt;div style=&quot;color: rgb(204, 204, 204); background-color: rgb(31, 31, 31); font-family: Consolas, &amp;quot;Courier New&amp;quot;, monospace; font-size: 14px; line-height: 19px; white-space-collapse: preserve;&quot;&gt;&lt;div style=&quot;line-height: 19px;&quot;&gt;&lt;span style=&quot;color: #dcdcaa;&quot;&gt;userReddem()&lt;/span&gt;&lt;/div&gt;&lt;/div&gt;" style="endArrow=classic;html=1;rounded=0;" edge="1" parent="1">
          <mxGeometry x="-0.6571" width="50" height="50" relative="1" as="geometry">
            <mxPoint x="250" y="1360" as="sourcePoint" />
            <mxPoint x="980" y="1360" as="targetPoint" />
            <mxPoint as="offset" />
          </mxGeometry>
        </mxCell>
        <mxCell id="jWBgDd1FHg-7k9Ct29qL-41" value="&lt;div style=&quot;color: rgb(204, 204, 204); background-color: rgb(31, 31, 31); font-family: Consolas, &amp;quot;Courier New&amp;quot;, monospace; font-size: 14px; line-height: 19px; white-space-collapse: preserve;&quot;&gt;&lt;span style=&quot;color: rgb(220, 220, 170);&quot;&gt;updateVaultBalance&lt;/span&gt;&lt;span style=&quot;color: #dcdcaa;&quot;&gt;()&lt;/span&gt;&lt;/div&gt;" style="endArrow=classic;html=1;rounded=0;" edge="1" parent="1">
          <mxGeometry x="-0.4444" width="50" height="50" relative="1" as="geometry">
            <mxPoint x="610" y="1400" as="sourcePoint" />
            <mxPoint x="980" y="1400" as="targetPoint" />
            <mxPoint as="offset" />
          </mxGeometry>
        </mxCell>
        <mxCell id="jWBgDd1FHg-7k9Ct29qL-44" value="" style="endArrow=none;dashed=1;html=1;dashPattern=1 3;strokeWidth=2;rounded=0;" edge="1" parent="1">
          <mxGeometry width="50" height="50" relative="1" as="geometry">
            <mxPoint x="120" y="370" as="sourcePoint" />
            <mxPoint x="991" y="370" as="targetPoint" />
          </mxGeometry>
        </mxCell>
        <mxCell id="jWBgDd1FHg-7k9Ct29qL-45" value="&lt;div style=&quot;color: rgb(204, 204, 204); background-color: rgb(31, 31, 31); font-family: Consolas, &amp;quot;Courier New&amp;quot;, monospace; font-size: 14px; line-height: 19px; white-space-collapse: preserve;&quot;&gt;OperationStatus.&lt;span style=&quot;color: #569cd6;&quot;&gt;NONE&lt;/span&gt;&lt;/div&gt;" style="edgeLabel;html=1;align=center;verticalAlign=middle;resizable=0;points=[];" vertex="1" connectable="0" parent="jWBgDd1FHg-7k9Ct29qL-44">
          <mxGeometry x="0.7038" y="1" relative="1" as="geometry">
            <mxPoint x="209" as="offset" />
          </mxGeometry>
        </mxCell>
        <mxCell id="jWBgDd1FHg-7k9Ct29qL-46" value="" style="endArrow=none;dashed=1;html=1;dashPattern=1 3;strokeWidth=2;rounded=0;" edge="1" parent="1">
          <mxGeometry width="50" height="50" relative="1" as="geometry">
            <mxPoint x="121" y="430" as="sourcePoint" />
            <mxPoint x="992" y="430" as="targetPoint" />
          </mxGeometry>
        </mxCell>
        <mxCell id="jWBgDd1FHg-7k9Ct29qL-47" value="&lt;div style=&quot;color: rgb(204, 204, 204); background-color: rgb(31, 31, 31); font-family: Consolas, &amp;quot;Courier New&amp;quot;, monospace; font-size: 14px; line-height: 19px; white-space-collapse: preserve;&quot;&gt;OperationStatus.&lt;span style=&quot;color: rgb(86, 156, 214);&quot;&gt;INITIALIZED&lt;/span&gt;&lt;/div&gt;" style="edgeLabel;html=1;align=center;verticalAlign=middle;resizable=0;points=[];" vertex="1" connectable="0" parent="jWBgDd1FHg-7k9Ct29qL-46">
          <mxGeometry x="0.7038" y="1" relative="1" as="geometry">
            <mxPoint x="238" as="offset" />
          </mxGeometry>
        </mxCell>
        <mxCell id="jWBgDd1FHg-7k9Ct29qL-48" value="" style="endArrow=none;dashed=1;html=1;dashPattern=1 3;strokeWidth=2;rounded=0;" edge="1" parent="1">
          <mxGeometry width="50" height="50" relative="1" as="geometry">
            <mxPoint x="121" y="500" as="sourcePoint" />
            <mxPoint x="992" y="500" as="targetPoint" />
          </mxGeometry>
        </mxCell>
        <mxCell id="jWBgDd1FHg-7k9Ct29qL-49" value="&lt;div style=&quot;color: rgb(204, 204, 204); background-color: rgb(31, 31, 31); font-family: Consolas, &amp;quot;Courier New&amp;quot;, monospace; font-size: 14px; line-height: 19px; white-space-collapse: preserve;&quot;&gt;OperationStatus.&lt;span style=&quot;color: rgb(86, 156, 214);&quot;&gt;CONFIRMED&lt;/span&gt;&lt;/div&gt;" style="edgeLabel;html=1;align=center;verticalAlign=middle;resizable=0;points=[];" vertex="1" connectable="0" parent="jWBgDd1FHg-7k9Ct29qL-48">
          <mxGeometry x="0.7038" y="1" relative="1" as="geometry">
            <mxPoint x="228" as="offset" />
          </mxGeometry>
        </mxCell>
        <mxCell id="jWBgDd1FHg-7k9Ct29qL-50" value="" style="endArrow=none;dashed=1;html=1;dashPattern=1 3;strokeWidth=2;rounded=0;" edge="1" parent="1">
          <mxGeometry width="50" height="50" relative="1" as="geometry">
            <mxPoint x="121" y="560" as="sourcePoint" />
            <mxPoint x="992" y="560" as="targetPoint" />
          </mxGeometry>
        </mxCell>
        <mxCell id="jWBgDd1FHg-7k9Ct29qL-51" value="&lt;div style=&quot;color: rgb(204, 204, 204); background-color: rgb(31, 31, 31); font-family: Consolas, &amp;quot;Courier New&amp;quot;, monospace; font-size: 14px; line-height: 19px; white-space-collapse: preserve;&quot;&gt;OperationStatus.&lt;span style=&quot;color: rgb(86, 156, 214);&quot;&gt;PROCESSING&lt;/span&gt;&lt;/div&gt;" style="edgeLabel;html=1;align=center;verticalAlign=middle;resizable=0;points=[];" vertex="1" connectable="0" parent="jWBgDd1FHg-7k9Ct29qL-50">
          <mxGeometry x="0.7038" y="1" relative="1" as="geometry">
            <mxPoint x="228" as="offset" />
          </mxGeometry>
        </mxCell>
        <mxCell id="jWBgDd1FHg-7k9Ct29qL-52" value="" style="endArrow=none;dashed=1;html=1;dashPattern=1 3;strokeWidth=2;rounded=0;" edge="1" parent="1">
          <mxGeometry width="50" height="50" relative="1" as="geometry">
            <mxPoint x="131" y="610" as="sourcePoint" />
            <mxPoint x="1002" y="610" as="targetPoint" />
          </mxGeometry>
        </mxCell>
        <mxCell id="jWBgDd1FHg-7k9Ct29qL-53" value="&lt;div style=&quot;color: rgb(204, 204, 204); background-color: rgb(31, 31, 31); font-family: Consolas, &amp;quot;Courier New&amp;quot;, monospace; font-size: 14px; line-height: 19px; white-space-collapse: preserve;&quot;&gt;OperationStatus.&lt;span style=&quot;color: rgb(86, 156, 214);&quot;&gt;RECEIVED&lt;/span&gt;&lt;/div&gt;" style="edgeLabel;html=1;align=center;verticalAlign=middle;resizable=0;points=[];" vertex="1" connectable="0" parent="jWBgDd1FHg-7k9Ct29qL-52">
          <mxGeometry x="0.7038" y="1" relative="1" as="geometry">
            <mxPoint x="209" as="offset" />
          </mxGeometry>
        </mxCell>
        <mxCell id="jWBgDd1FHg-7k9Ct29qL-54" value="" style="endArrow=none;dashed=1;html=1;dashPattern=1 3;strokeWidth=2;rounded=0;" edge="1" parent="1">
          <mxGeometry width="50" height="50" relative="1" as="geometry">
            <mxPoint x="131" y="670" as="sourcePoint" />
            <mxPoint x="1002" y="670" as="targetPoint" />
          </mxGeometry>
        </mxCell>
        <mxCell id="jWBgDd1FHg-7k9Ct29qL-55" value="&lt;div style=&quot;color: rgb(204, 204, 204); background-color: rgb(31, 31, 31); font-family: Consolas, &amp;quot;Courier New&amp;quot;, monospace; font-size: 14px; line-height: 19px; white-space-collapse: preserve;&quot;&gt;OperationStatus.&lt;span style=&quot;color: rgb(86, 156, 214);&quot;&gt;FINALIZED&lt;/span&gt;&lt;/div&gt;" style="edgeLabel;html=1;align=center;verticalAlign=middle;resizable=0;points=[];" vertex="1" connectable="0" parent="jWBgDd1FHg-7k9Ct29qL-54">
          <mxGeometry x="0.7038" y="1" relative="1" as="geometry">
            <mxPoint x="218" as="offset" />
          </mxGeometry>
        </mxCell>
        <mxCell id="jWBgDd1FHg-7k9Ct29qL-56" value="" style="endArrow=none;dashed=1;html=1;dashPattern=1 3;strokeWidth=2;rounded=0;" edge="1" parent="1">
          <mxGeometry width="50" height="50" relative="1" as="geometry">
            <mxPoint x="131" y="730" as="sourcePoint" />
            <mxPoint x="1002" y="730" as="targetPoint" />
          </mxGeometry>
        </mxCell>
        <mxCell id="jWBgDd1FHg-7k9Ct29qL-57" value="&lt;div style=&quot;color: rgb(204, 204, 204); background-color: rgb(31, 31, 31); font-family: Consolas, &amp;quot;Courier New&amp;quot;, monospace; font-size: 14px; line-height: 19px; white-space-collapse: preserve;&quot;&gt;OperationStatus.&lt;span style=&quot;color: rgb(86, 156, 214);&quot;&gt;CLOSED&lt;/span&gt;&lt;/div&gt;" style="edgeLabel;html=1;align=center;verticalAlign=middle;resizable=0;points=[];" vertex="1" connectable="0" parent="jWBgDd1FHg-7k9Ct29qL-56">
          <mxGeometry x="0.7038" y="1" relative="1" as="geometry">
            <mxPoint x="208" as="offset" />
          </mxGeometry>
        </mxCell>
        <mxCell id="jWBgDd1FHg-7k9Ct29qL-58" value="" style="endArrow=none;dashed=1;html=1;dashPattern=1 3;strokeWidth=2;rounded=0;" edge="1" parent="1">
          <mxGeometry width="50" height="50" relative="1" as="geometry">
            <mxPoint x="131" y="780" as="sourcePoint" />
            <mxPoint x="1002" y="780" as="targetPoint" />
          </mxGeometry>
        </mxCell>
        <mxCell id="jWBgDd1FHg-7k9Ct29qL-59" value="&lt;div style=&quot;color: rgb(204, 204, 204); background-color: rgb(31, 31, 31); font-family: Consolas, &amp;quot;Courier New&amp;quot;, monospace; font-size: 14px; line-height: 19px; white-space-collapse: preserve;&quot;&gt;OperationStatus.&lt;span style=&quot;color: rgb(86, 156, 214);&quot;&gt;CANCELLED&lt;/span&gt;&lt;/div&gt;" style="edgeLabel;html=1;align=center;verticalAlign=middle;resizable=0;points=[];" vertex="1" connectable="0" parent="jWBgDd1FHg-7k9Ct29qL-58">
          <mxGeometry x="0.7038" y="1" relative="1" as="geometry">
            <mxPoint x="218" as="offset" />
          </mxGeometry>
        </mxCell>
        <mxCell id="jWBgDd1FHg-7k9Ct29qL-60" value="" style="rounded=0;whiteSpace=wrap;html=1;fillColor=none;" vertex="1" parent="1">
          <mxGeometry x="220" y="200" width="800" height="120" as="geometry" />
        </mxCell>
        <mxCell id="jWBgDd1FHg-7k9Ct29qL-62" value="" style="rounded=0;whiteSpace=wrap;html=1;fillColor=none;" vertex="1" parent="1">
          <mxGeometry x="220" y="910" width="830" height="90" as="geometry" />
        </mxCell>
        <mxCell id="jWBgDd1FHg-7k9Ct29qL-63" value="" style="rounded=0;whiteSpace=wrap;html=1;fillColor=none;" vertex="1" parent="1">
          <mxGeometry x="220" y="1040" width="440" height="60" as="geometry" />
        </mxCell>
        <mxCell id="jWBgDd1FHg-7k9Ct29qL-64" value="" style="rounded=0;whiteSpace=wrap;html=1;fillColor=none;" vertex="1" parent="1">
          <mxGeometry x="150" y="1460" width="880" height="90" as="geometry" />
        </mxCell>
        <mxCell id="jWBgDd1FHg-7k9Ct29qL-66" value="" style="rounded=0;whiteSpace=wrap;html=1;fillColor=none;" vertex="1" parent="1">
          <mxGeometry x="415" y="1130" width="615" height="150" as="geometry" />
        </mxCell>
        <mxCell id="jWBgDd1FHg-7k9Ct29qL-67" value="" style="rounded=0;whiteSpace=wrap;html=1;fillColor=none;" vertex="1" parent="1">
          <mxGeometry x="220" y="1300" width="810" height="130" as="geometry" />
        </mxCell>
        <mxCell id="jWBgDd1FHg-7k9Ct29qL-69" value="Call the function" style="rounded=0;whiteSpace=wrap;html=1;" vertex="1" parent="1">
          <mxGeometry x="160" y="30" width="110" height="30" as="geometry" />
        </mxCell>
        <mxCell id="jWBgDd1FHg-7k9Ct29qL-70" value="Execute the function" style="rounded=0;whiteSpace=wrap;html=1;" vertex="1" parent="1">
          <mxGeometry x="380" y="30" width="140" height="30" as="geometry" />
        </mxCell>
      </root>
    </mxGraphModel>
  </diagram>
</mxfile>
